<svg xmlns="http://www.w3.org/2000/svg" width="16" height="16" viewBox="0 0 16 16" fill="none">
  <path fill-rule="evenodd" clip-rule="evenodd" d="M2.54966 4.01759L2.42806 3.01981C2.38425 2.59682 2.02366 2.27516 1.59332 2.27516H1.14371C0.865518 2.27516 0.640015 2.05237 0.640015 1.77758C0.640015 1.50278 0.865518 1.28 1.14371 1.28H1.59332C2.54035 1.28 3.33384 1.98781 3.43023 2.91853L3.522 3.80469H13.7442C13.9555 3.80469 14.1143 3.99528 14.0736 4.20016L13.1806 8.69939C12.9644 9.78858 11.9981 10.5742 10.8746 10.5742H5.52226C5.67662 11.2471 6.28533 11.7349 6.99536 11.7349H11.211C11.2359 11.7349 11.2605 11.7367 11.2482 11.7389C11.2851 11.7363 11.3222 11.7349 11.3595 11.7349C12.1939 11.7349 12.8703 12.4032 12.8703 13.2275C12.8703 14.0518 12.1939 14.72 11.3595 14.72C10.5251 14.72 9.84866 14.0518 9.84866 13.2275C9.84866 13.0557 9.87814 12.888 9.93462 12.7301H8.08451C8.14099 12.888 8.17046 13.0557 8.17046 13.2275C8.17046 14.0518 7.49407 14.72 6.65966 14.72C5.82526 14.72 5.14886 14.0518 5.14886 13.2275C5.14886 12.8639 5.28131 12.5213 5.51406 12.2543C4.94151 11.8424 4.56381 11.207 4.49058 10.4979L4.48284 10.423C3.66309 10.1147 3.05809 9.3652 2.9775 8.45494L2.7745 6.16201C2.77107 6.14783 2.76855 6.13326 2.76701 6.11836L2.54966 4.01759ZM6.65966 13.8908C7.03047 13.8908 7.33106 13.5938 7.33106 13.2275C7.33106 12.8611 7.03047 12.5642 6.65966 12.5642C6.28886 12.5642 5.98826 12.8611 5.98826 13.2275C5.98826 13.5938 6.28886 13.8908 6.65966 13.8908ZM11.3595 13.8908C11.7303 13.8908 12.0309 13.5938 12.0309 13.2275C12.0309 12.8611 11.7303 12.5642 11.3595 12.5642C10.9887 12.5642 10.6881 12.8611 10.6881 13.2275C10.6881 13.5938 10.9887 13.8908 11.3595 13.8908Z" fill="#5C6AC4"/>
</svg>