<svg xmlns="http://www.w3.org/2000/svg" width="162" height="48" viewBox="0 0 162 48" fill="none">
  <path d="M156 48H6C2.64 48 0 45.36 0 42V6C0 2.64 2.64 0 6 0H156C159.36 0 162 2.64 162 6V42C162 45.36 159.36 48 156 48Z" fill="black"/>
  <path fill-rule="evenodd" clip-rule="evenodd" d="M6 0H156C159.36 0 162 2.76 162 6V42C162 45.36 159.36 48 156 48H6C2.64 48 0 45.36 0 42V6C0 2.76 2.64 0 6 0ZM161.04 6C161.04 3.24 158.76 0.96 156 0.96H6C3.24 0.96 0.96 3.24 0.96 6V42C0.96 44.76 3.24 47.04 6 47.04H156C158.76 47.04 161.04 44.76 161.04 42V6Z" fill="#A6A6A6"/>
  <path fill-rule="evenodd" clip-rule="evenodd" d="M56.04 14.64C56.64 14.04 56.88 13.2 56.88 12.24V11.76H53.4V12.72H56.04C56.04 13.32 55.8 13.8 55.44 14.16C54.84 14.76 54.24 15 53.4 15C52.68 15 52.08 14.64 51.48 14.16C50.88 13.68 50.64 12.96 50.64 12.12C50.64 11.28 50.88 10.56 51.48 10.08C51.96 9.48003 52.68 9.24003 53.4 9.24003C54.24 9.24003 54.84 9.48003 55.32 10.08L55.92 9.48003C55.68 9.12003 55.32 8.88003 54.84 8.64003C54.36 8.40003 53.88 8.28003 53.4 8.28003C52.32 8.28003 51.48 8.64003 50.76 9.36003C50.04 10.08 49.68 10.92 49.68 12C49.68 13.08 50.04 13.92 50.76 14.64C51.48 15.36 52.32 15.72 53.4 15.72C54.48 15.72 55.32 15.36 56.04 14.64ZM59.16 9.24003H62.4V8.40003H58.2V15.6H62.4V14.64H59.16V12.36H62.16V11.52H59.16V9.24003ZM66.36 15.6H65.4V9.24003H63.36V8.40003H68.4V9.24003H66.36V15.6ZM72.84 8.40003H71.88V15.6H72.84V8.40003ZM76.8 15.6H75.96V9.24003H73.92V8.40003H78.84V9.24003H76.8V15.6ZM85.68 15.72C86.76 15.72 87.6 15.36 88.32 14.64C89.04 13.92 89.4 13.08 89.4 12C89.4 10.92 89.04 10.08 88.32 9.36003C87.6 8.64003 86.76 8.28003 85.68 8.28003C84.6 8.28003 83.76 8.64003 83.04 9.36003C82.32 10.08 81.96 10.92 81.96 12C81.96 13.08 82.32 13.92 83.04 14.64C83.76 15.36 84.6 15.72 85.68 15.72ZM83.76 14.04C84.24 14.52 84.96 14.88 85.68 14.88C86.4 14.88 87.12 14.64 87.6 14.04C88.08 13.56 88.44 12.84 88.44 12C88.44 11.16 88.2 10.44 87.6 9.96003C87.12 9.48003 86.4 9.12003 85.68 9.12003C84.96 9.12003 84.24 9.36003 83.76 9.96003C83.28 10.44 82.92 11.16 82.92 12C82.92 12.84 83.16 13.56 83.76 14.04ZM91.8 8.40003H90.72V15.6H91.56V9.72003L95.28 15.6H96.24V8.40003H95.28V14.04L91.8 8.40003Z" fill="white"/>
  <path fill-rule="evenodd" clip-rule="evenodd" d="M57.24 27.72V29.88H62.4C62.28 31.08 61.8 32.04 61.2 32.64C60.48 33.36 59.28 34.2 57.24 34.2C54 34.2 51.6 31.68 51.6 28.44C51.6 25.2 54.12 22.68 57.24 22.68C58.92 22.68 60.24 23.4 61.2 24.24L62.76 22.68C61.44 21.48 59.76 20.52 57.36 20.52C53.04 20.52 49.32 24.12 49.32 28.44C49.32 32.76 53.04 36.36 57.36 36.36C59.76 36.36 61.44 35.64 62.88 34.08C64.32 32.64 64.8 30.6 64.8 29.04C64.8 28.56 64.8 28.08 64.68 27.72H57.24ZM70.56 26.16C67.68 26.16 65.4 28.32 65.4 31.32C65.4 34.2 67.68 36.48 70.56 36.48C73.44 36.48 75.72 34.32 75.72 31.32C75.72 28.2 73.44 26.16 70.56 26.16ZM76.56 31.32C76.56 28.32 78.84 26.16 81.72 26.16C84.6 26.16 86.88 28.2 86.88 31.32C86.88 34.32 84.6 36.48 81.72 36.48C78.84 36.48 76.56 34.2 76.56 31.32ZM78.84 31.2C78.84 33 80.16 34.32 81.72 34.32C83.28 34.32 84.6 33 84.6 31.2C84.6 29.28 83.28 28.08 81.72 28.08C80.16 28.08 78.84 29.4 78.84 31.2ZM67.68 31.2C67.68 33 69 34.32 70.56 34.32C72.12 34.32 73.44 33 73.44 31.2C73.44 29.28 72.12 28.08 70.56 28.08C69 28.08 67.68 29.4 67.68 31.2ZM107.4 26.16C110.04 26.16 111.24 28.2 111.72 29.4L111.96 30L105.12 32.88C105.72 33.96 106.44 34.44 107.64 34.44C108.84 34.44 109.56 33.84 110.16 33L111.84 34.2C111.36 35.04 109.92 36.48 107.64 36.48C104.76 36.48 102.6 34.2 102.6 31.32C102.6 28.2 104.76 26.16 107.4 26.16ZM104.76 31.08C104.76 29.16 106.32 28.08 107.4 28.08C108.24 28.08 109.08 28.56 109.32 29.16L104.76 31.08ZM101.4 36H99.12V21H101.4V36ZM95.52 27.24C94.92 26.64 93.96 26.04 92.76 26.04C90.24 26.04 87.84 28.32 87.84 31.2C87.84 34.08 90.12 36.24 92.76 36.24C93.96 36.24 94.92 35.64 95.4 35.04H95.52V35.76C95.52 37.68 94.44 38.76 92.76 38.76C91.44 38.76 90.48 37.8 90.24 36.96L88.32 37.8C88.92 39.12 90.36 40.8 92.88 40.8C95.52 40.8 97.68 39.24 97.68 35.52V26.4H95.52V27.24ZM90 31.2C90 33 91.32 34.32 92.88 34.32C94.44 34.32 95.64 33 95.64 31.2C95.64 29.4 94.44 28.08 92.88 28.08C91.32 28.08 90 29.4 90 31.2ZM122.16 21H116.76V36H119.04V30.36H122.16C124.68 30.36 127.08 28.56 127.08 25.68C127.08 22.8 124.68 21 122.16 21ZM119.04 28.2H122.28C123.84 28.2 124.8 26.88 124.92 25.56C124.92 24.48 123.96 23.04 122.28 23.04H119.04V28.2ZM136.08 26.04C134.4 26.04 132.72 26.76 132.12 28.32L134.16 29.16C134.64 28.32 135.36 28.08 136.2 28.08C137.4 28.08 138.48 28.8 138.6 30V30.12C138.24 29.88 137.28 29.52 136.32 29.52C134.16 29.52 132 30.72 132 32.88C132 34.92 133.8 36.24 135.72 36.24C137.28 36.24 138 35.52 138.6 34.8H138.72V36H140.88V30.24C140.64 27.6 138.6 26.04 136.08 26.04ZM134.04 33C134.04 33.96 135.12 34.32 135.84 34.32C137.04 34.32 138.24 33.36 138.48 31.92C138.419 31.8958 138.36 31.8715 138.301 31.8475C137.778 31.634 137.303 31.44 136.44 31.44C135.36 31.44 134.04 31.8 134.04 33ZM148.44 26.4L145.92 32.88H145.8L143.16 26.4H140.76L144.72 35.52L142.44 40.56H144.72L150.84 26.4H148.44ZM130.56 36H128.28V21H130.56V36Z" fill="white"/>
  <path d="M12.48 9C12.12 9.36 12 9.96 12 10.68V37.2C12 37.92 12.24 38.52 12.6 38.88L12.72 39L27.6 24.12V23.88L12.48 9Z" fill="url(#paint0_linear_0_222)"/>
  <path d="M32.4 29.16L27.48 24.24V23.88L32.4 18.96L32.52 19.08L38.4 22.44C40.08 23.4 40.08 24.96 38.4 25.92L32.4 29.16Z" fill="url(#paint1_linear_0_222)"/>
  <path d="M32.52 29.04L27.48 24L12.48 39C13.08 39.6 13.92 39.6 15 39.12L32.52 29.04Z" fill="url(#paint2_linear_0_222)"/>
  <path d="M32.52 18.96L15 9C13.92 8.4 13.08 8.52 12.48 9.12L27.48 24L32.52 18.96Z" fill="url(#paint3_linear_0_222)"/>
  <path opacity="0.2" d="M32.4 28.92L15 38.76C14.04 39.36 13.2 39.24 12.6 38.76L12.48 38.88L12.6 39C13.2 39.48 14.04 39.6 15 39L32.4 28.92Z" fill="black"/>
  <path opacity="0.12" fill-rule="evenodd" clip-rule="evenodd" d="M32.4 28.92L38.4 25.56C39.12 25.08 39.6 24.6 39.6 24C39.6 24.6 39.24 25.2 38.4 25.68L32.52 29.04L32.4 28.92ZM12.0217 37.5684C12.0701 38.07 12.205 38.485 12.48 38.76H12.4917C12.5264 38.8025 12.5626 38.8426 12.6 38.88V38.76H12.4917C12.2514 38.4658 12.0798 38.0537 12.0217 37.5684ZM12.0217 37.5684C12.0067 37.4133 12 37.25 12 37.08V37.2C12 37.3267 12.0074 37.4497 12.0217 37.5684Z" fill="black"/>
  <path opacity="0.25" d="M15 9.11997L38.4 22.44C39.12 22.92 39.6 23.4 39.6 24C39.6 23.4 39.24 22.8 38.4 22.32L15 8.99997C13.32 8.03997 12 8.75997 12 10.68V10.8C12 8.99997 13.32 8.15997 15 9.11997Z" fill="white"/>
  <defs>
    <linearGradient id="paint0_linear_0_222" x1="20.924" y1="-8.913" x2="-2.91768" y2="-2.46659" gradientUnits="userSpaceOnUse">
      <stop stop-color="#00A0FF"/>
      <stop offset="0.007" stop-color="#00A1FF"/>
      <stop offset="0.26" stop-color="#00BEFF"/>
      <stop offset="0.512" stop-color="#00D2FF"/>
      <stop offset="0.76" stop-color="#00DFFF"/>
      <stop offset="1" stop-color="#00E3FF"/>
    </linearGradient>
    <linearGradient id="paint1_linear_0_222" x1="40.6008" y1="11.8431" x2="11.5644" y2="11.8431" gradientUnits="userSpaceOnUse">
      <stop stop-color="#FFE000"/>
      <stop offset="0.409" stop-color="#FFBD00"/>
      <stop offset="0.775" stop-color="#FFA500"/>
      <stop offset="1" stop-color="#FF9C00"/>
    </linearGradient>
    <linearGradient id="paint2_linear_0_222" x1="12.0995" y1="16.2168" x2="-7.0587" y2="48.3816" gradientUnits="userSpaceOnUse">
      <stop stop-color="#FF3A44"/>
      <stop offset="1" stop-color="#C31162"/>
    </linearGradient>
    <linearGradient id="paint3_linear_0_222" x1="0.818471" y1="4.89545" x2="9.30637" y2="19.279" gradientUnits="userSpaceOnUse">
      <stop stop-color="#32A071"/>
      <stop offset="0.069" stop-color="#2DA771"/>
      <stop offset="0.476" stop-color="#15CF74"/>
      <stop offset="0.801" stop-color="#06E775"/>
      <stop offset="1" stop-color="#00F076"/>
    </linearGradient>
  </defs>
</svg>