<svg xmlns="http://www.w3.org/2000/svg" width="162" height="48" viewBox="0 0 162 48" fill="none">
  <path d="M160.925 42.333C160.925 43.5532 160.44 44.7234 159.577 45.5857C158.713 46.4481 157.542 46.9319 156.322 46.9305H5.6778C3.13533 46.9332 1.07192 44.8751 1.0686 42.3333V5.6715C1.07191 3.12872 3.13436 1.06896 5.6778 1.0683H156.321C157.542 1.06822 158.713 1.5532 159.577 2.41651C160.44 3.27982 160.925 4.45071 160.924 5.6715L160.925 42.333Z" fill="white"/>
  <path d="M156.322 48H5.6778C2.54594 47.9993 0.00579201 45.464 0 42.333V5.673C0.00446639 2.54045 2.54442 0.00264283 5.6778 0H156.321C159.454 0.00396132 161.993 2.541 161.999 5.673V42.333C162.001 45.459 159.45 48 156.322 48H156.322Z" fill="#A6A6A6"/>
  <path d="M160.925 42.333C160.925 43.5532 160.44 44.7234 159.577 45.5857C158.713 46.4481 157.542 46.9319 156.322 46.9305H5.6778C3.13533 46.9332 1.07192 44.8751 1.0686 42.3333V5.6715C1.07191 3.12872 3.13436 1.06896 5.6778 1.0683H156.321C157.542 1.06822 158.713 1.5532 159.577 2.41651C160.44 3.27982 160.925 4.45071 160.924 5.6715L160.925 42.333Z" fill="black"/>
  <path fill-rule="evenodd" clip-rule="evenodd" d="M33.8991 7.46252C34.0983 9.27362 33.3804 11.0586 32.331 12.3705C31.236 13.6623 29.4843 14.6499 27.7782 14.5227C27.555 12.78 28.4193 10.9266 29.3871 9.79592C30.4809 8.51252 32.3802 7.52972 33.8991 7.46252ZM39.4843 17.9111C39.2934 18.025 36.1386 19.9079 36.1731 23.7474C36.2139 28.383 40.2315 29.9169 40.2795 29.9337C40.2555 30.042 39.6501 32.1471 38.1435 34.2825C36.885 36.1635 35.5668 38.0037 33.4728 38.0361C32.4775 38.0589 31.8053 37.773 31.105 37.4752C30.3743 37.1644 29.6128 36.8406 28.4217 36.8406C27.1595 36.8406 26.3645 37.1749 25.5979 37.4973C24.9346 37.7762 24.2925 38.0462 23.3874 38.0829C21.393 38.1561 19.8696 36.0759 18.5655 34.2105C15.9591 30.4044 13.9299 23.4846 16.6506 18.7755C17.9688 16.4664 20.3727 14.979 22.9422 14.9394C24.0736 14.9161 25.1588 15.3521 26.1101 15.7343C26.8374 16.0265 27.4865 16.2873 28.0182 16.2873C28.4853 16.2873 29.1164 16.0369 29.8518 15.7451C31.0108 15.2852 32.4291 14.7225 33.8739 14.8746C34.8621 14.9034 37.674 15.2646 39.4881 17.9088L39.4843 17.9111Z" fill="white"/>
  <path d="M156.322 0H75.6324L107.237 48H156.322C159.454 47.9974 161.994 45.4612 162 42.3296V5.67276C161.995 2.54057 159.455 0.00330372 156.322 0Z" fill="url(#paint0_linear_0_178)"/>
  <path fill-rule="evenodd" clip-rule="evenodd" d="M85.3542 16.1241H84.0945V7.86572H85.3542V16.1241ZM54.2826 16.1937C53.5704 16.1937 52.9545 16.1589 52.4418 16.1001V8.37722C53.1589 8.2665 53.8835 8.21194 54.609 8.21402C57.5448 8.21402 58.8966 9.65792 58.8966 12.0117C58.8966 14.7267 57.2997 16.1937 54.2826 16.1937ZM104.285 36.6534C105.23 35.7999 105.705 34.6944 105.705 33.3345C105.705 32.2314 105.381 31.3059 104.729 30.564C104.082 29.8221 103.071 29.1765 101.695 28.6218C100.574 28.1802 99.798 27.7683 99.3729 27.3903C98.883 26.9799 98.637 26.4564 98.637 25.8264C98.637 25.2549 98.853 24.7737 99.279 24.3786C99.786 23.937 100.494 23.715 101.397 23.715C102.54 23.715 103.562 23.9598 104.467 24.4494L105.11 22.3635C104.148 21.858 102.936 21.6045 101.483 21.6045C99.8544 21.6045 98.5458 22.0236 97.5588 22.8615C96.5718 23.7006 96.0771 24.7734 96.0771 26.0844C96.0771 28.0914 97.4769 29.6169 100.274 30.66C101.303 31.038 102.036 31.4499 102.479 31.8915C102.92 32.3346 103.144 32.8782 103.144 33.5277C103.144 34.2525 102.873 34.8336 102.336 35.268C101.801 35.7015 101.05 35.9196 100.085 35.9196C98.7426 35.9196 97.5093 35.5887 96.3867 34.9236L95.7948 37.0566C96.8346 37.7205 98.2131 38.0514 99.9324 38.0514C101.793 38.0514 103.245 37.5846 104.285 36.6534ZM64.4328 37.815H61.7061L60.2124 33.123H55.0209L53.598 37.815H50.9436L56.0883 21.8412H59.2653L64.4328 37.815ZM59.7624 31.1547L58.4115 26.9835C58.2687 26.5575 57.9996 25.5537 57.606 23.9742H57.558C57.3993 24.6537 57.1461 25.6572 56.799 26.9832L55.4712 31.1547H59.7624ZM76.0407 36.5583C77.1057 35.4216 77.6376 33.8733 77.6376 31.9143C77.6376 30.1608 77.1825 28.7466 76.2759 27.6702C75.3684 26.5956 74.2338 26.0592 72.8748 26.0592C71.136 26.0592 69.8406 26.7471 68.9868 28.1226H68.9388L68.796 26.2968H66.5448C66.6072 27.5907 66.6396 28.8522 66.6396 30.0828V42.4857H69.1992V36.4419C69.8658 37.5318 70.9632 38.0757 72.489 38.0757C73.9023 38.0757 75.0873 37.5702 76.0407 36.5583ZM75.0297 32.0079C75.0297 30.8868 74.7777 29.9625 74.2707 29.2341C73.7175 28.4766 72.9741 28.0971 72.0426 28.0971C71.4108 28.0971 70.8369 28.3086 70.3245 28.725C69.8106 29.145 69.4743 29.694 69.3171 30.3732C69.2468 30.6273 69.2068 30.8888 69.198 31.1523V33.0738C69.198 33.9108 69.4551 34.6176 69.969 35.196C70.4829 35.772 71.1504 36.0615 71.9715 36.0615C72.9357 36.0615 73.6863 35.6883 74.223 34.9476C74.7606 34.2045 75.0297 33.225 75.0297 32.0079ZM89.2923 36.5583C90.3573 35.4216 90.8892 33.8733 90.8892 31.9143C90.8892 30.1608 90.4329 28.7466 89.5275 27.6702C88.6173 26.5956 87.4827 26.0592 86.1249 26.0592C84.3852 26.0592 83.0895 26.7471 82.2372 28.1226H82.1892L82.0464 26.2968H79.7952C79.8576 27.5907 79.89 28.8522 79.89 30.0828V42.4857H82.4496V36.4419C83.1162 37.5318 84.2136 38.0757 85.7394 38.0757C87.1539 38.0757 88.3377 37.5702 89.2923 36.5583ZM88.2801 32.0079C88.2801 30.8868 88.0266 29.9625 87.5199 29.2341C86.9664 28.4766 86.2257 28.0971 85.2939 28.0971C84.6624 28.0971 84.0885 28.3086 83.5734 28.725C83.0595 29.145 82.7244 29.694 82.5675 30.3732C82.4895 30.69 82.4475 30.948 82.4475 31.1523V33.0738C82.4475 33.9108 82.7055 34.6176 83.217 35.196C83.7309 35.7711 84.3984 36.0615 85.2219 36.0615C86.1873 36.0615 86.9379 35.6883 87.4731 34.9476C88.011 34.2045 88.2801 33.225 88.2801 32.0079ZM114.19 28.2174H111.368V33.8097C111.368 35.232 111.866 35.9415 112.862 35.9415C113.32 35.9415 113.699 35.9031 113.999 35.8227L114.07 37.7661C113.566 37.9545 112.902 38.0493 112.079 38.0493C111.068 38.0493 110.278 37.7409 109.708 37.1238C109.14 36.5067 108.854 35.4735 108.854 34.0188V28.2123H107.174V26.292H108.854V24.183L111.368 23.4243V26.2923H114.19V28.2174ZM125.378 36.3219C126.389 35.1852 126.895 33.7314 126.895 31.9614V31.9611C126.895 30.2376 126.407 28.833 125.425 27.7455C124.397 26.6244 123.039 26.0625 121.348 26.0625C119.594 26.0625 118.199 26.6316 117.163 27.7695C116.129 28.9062 115.61 30.3681 115.61 32.1531C115.61 33.8589 116.112 35.2731 117.116 36.3951C118.12 37.515 119.466 38.0757 121.159 38.0757C122.913 38.0757 124.32 37.4922 125.378 36.3219ZM124.242 32.0199C124.242 30.9648 124.014 30.06 123.556 29.3025C123.02 28.3878 122.251 27.9306 121.256 27.9306C120.23 27.9306 119.444 28.3878 118.909 29.3025C118.45 30.06 118.222 30.9804 118.222 32.0679C118.222 33.1242 118.45 34.0317 118.909 34.7868C119.462 35.7015 120.234 36.1587 121.234 36.1587C122.213 36.1587 122.98 35.6919 123.535 34.7637C124.006 33.9885 124.242 33.0777 124.242 32.0199ZM134.412 28.4766C134.683 28.4757 134.953 28.4994 135.219 28.5474L135.217 26.106C135.027 26.076 134.814 26.0592 134.577 26.0592C133.91 26.0602 133.261 26.2765 132.727 26.676C132.143 27.1335 131.718 27.7443 131.447 28.5018H131.376L131.282 26.298H129.053C129.105 27.506 129.13 28.715 129.127 29.9241V37.8153H131.687V31.7715C131.687 30.8559 131.901 30.0969 132.326 29.4969C132.816 28.815 133.512 28.4766 134.412 28.4766ZM146.667 31.5111C146.674 31.9001 146.643 32.2889 146.574 32.6718H138.895C138.923 33.8097 139.296 34.6812 140.009 35.2812C140.656 35.8167 141.493 36.0855 142.52 36.0855C143.657 36.0855 144.695 35.9055 145.628 35.5419L146.029 37.317C144.939 37.7925 143.651 38.0289 142.166 38.0289C140.38 38.0289 138.977 37.503 137.957 36.4539C136.939 35.4039 136.428 33.9921 136.428 32.2239C136.428 30.4884 136.903 29.0421 137.852 27.8886C138.847 26.6568 140.19 26.0412 141.881 26.0412C143.541 26.0412 144.798 26.6568 145.652 27.8886C146.328 28.8642 146.668 30.0744 146.668 31.5111H146.667ZM143.73 28.8798C144.077 29.4333 144.245 30.0876 144.227 30.8472L138.896 30.8448C138.974 30.0732 139.227 29.4081 139.653 28.8546C140.172 28.1586 140.854 27.8118 141.691 27.8118C142.605 27.8118 143.287 28.167 143.73 28.8798ZM53.6991 9.28592C53.9787 9.22802 54.3162 9.20402 54.7122 9.20402C56.577 9.20402 57.5676 10.2183 57.5676 12.0465C57.5676 14.0964 56.4726 15.1914 54.549 15.1914C54.1407 15.1914 53.8503 15.1806 53.6991 15.1566V9.28592ZM63.1098 16.2525C61.4553 16.2525 60.3828 15.0174 60.3828 13.3404C60.3828 11.5929 61.4778 10.3467 63.2034 10.3467C64.8339 10.3467 65.9301 11.5233 65.9301 13.248C65.9301 15.0174 64.8003 16.2525 63.1098 16.2525ZM61.6665 13.3044C61.6665 12.1161 62.2488 11.2665 63.1578 11.2665V11.2662C64.0428 11.2662 64.6248 12.1284 64.6248 13.2804C64.6248 14.4111 64.0302 15.3198 63.1455 15.3198C62.2608 15.3198 61.6665 14.4699 61.6665 13.3044ZM75.3648 10.4634L73.5936 16.1241H72.4398L71.7063 13.6659C71.5239 13.0646 71.372 12.4544 71.2512 11.8377H71.2272C71.1348 12.4545 70.9596 13.0728 70.7733 13.6659L69.993 16.1241H68.8272L67.1607 10.4631H68.4537L69.0948 13.1544C69.2463 13.7955 69.3735 14.4003 69.4791 14.9718H69.5031C69.5955 14.4951 69.7467 13.8999 69.969 13.1664L70.7733 10.4646H71.7987L72.5685 13.1088C72.747 13.7234 72.8987 14.3453 73.0233 14.973H73.0569C73.1388 14.391 73.2669 13.7727 73.4412 13.1088L74.1291 10.4646L75.3648 10.4634ZM80.6259 16.1241H81.8841L81.8853 12.7341C81.8853 11.2554 81.105 10.3464 79.9164 10.3464C79.1466 10.3464 78.4599 10.7307 78.1215 11.3355H78.0864L78.0276 10.4619H76.9206C76.9554 11.0439 76.9674 11.5806 76.9674 12.081V16.1241H78.2259V12.7572C78.2259 12.0117 78.7386 11.3706 79.4841 11.3706C80.2419 11.3706 80.6259 11.8725 80.6259 12.8736V16.1241ZM87.2148 13.3404C87.2148 15.0174 88.2885 16.2525 89.9418 16.2525C91.6311 16.2525 92.7621 15.0174 92.7609 13.248C92.7609 11.5233 91.6659 10.3467 90.0342 10.3467C88.3098 10.3467 87.2148 11.5929 87.2148 13.3404ZM89.9886 11.2665C89.0796 11.2665 88.4976 12.1161 88.4976 13.3044C88.4976 14.4699 89.0928 15.3198 89.9754 15.3198C90.8613 15.3198 91.4544 14.4111 91.4544 13.2804C91.4559 12.1284 90.8745 11.2662 89.9886 11.2662V11.2665ZM97.6308 15.4722L97.722 16.1241L98.8566 16.1253C98.8002 15.7878 98.775 15.345 98.775 14.7738V12.6888C98.775 11.127 98.028 10.3467 96.549 10.3467C95.7816 10.3467 95.1285 10.5102 94.605 10.8366L94.8609 11.6634C95.2917 11.3838 95.7819 11.2434 96.3399 11.2434C97.1205 11.2434 97.5153 11.6169 97.5153 12.3621V12.4665C95.418 12.4665 94.2063 13.1892 94.2063 14.5863C94.2063 15.5418 94.9269 16.2522 95.9412 16.2522C96.6522 16.2522 97.2129 15.9969 97.5972 15.4722H97.6308ZM97.5489 13.3044C96.1515 13.3044 95.4504 13.6431 95.4504 14.4459C95.4504 15.0399 95.8116 15.3306 96.3135 15.3306C96.9534 15.3306 97.5489 14.8422 97.5489 14.1783V13.3044ZM104.826 15.2151L104.885 16.1241L106.005 16.1238C105.972 15.6579 105.959 15.1455 105.959 14.598V7.86602H104.699V11.115H104.674C104.371 10.6014 103.835 10.3455 103.077 10.3455C101.646 10.3455 100.598 11.5929 100.598 13.3635C100.598 15.0522 101.609 16.2525 102.974 16.2525C103.823 16.2525 104.43 15.9021 104.792 15.2151H104.826ZM104.699 12.7932C104.699 12.0009 104.174 11.325 103.373 11.325C102.44 11.325 101.87 12.1521 101.87 13.3164C101.87 14.4579 102.462 15.2394 103.348 15.2394C104.139 15.2394 104.699 14.5515 104.699 13.7364L104.699 12.7932ZM111.218 13.3404C111.218 15.0174 112.291 16.2522 113.944 16.2522V16.2525C115.636 16.2525 116.765 15.0174 116.765 13.248C116.765 11.5233 115.67 10.3467 114.038 10.3467C112.313 10.3467 111.218 11.5929 111.218 13.3404ZM113.991 11.2662C113.083 11.2662 112.501 12.1161 112.501 13.3044C112.501 14.4699 113.095 15.3198 113.979 15.3198C114.865 15.3198 115.458 14.4111 115.458 13.2804C115.46 12.1284 114.878 11.2662 113.991 11.2662ZM122.272 16.1241H123.531V12.7329C123.531 11.2539 122.75 10.3455 121.561 10.3455C120.792 10.3455 120.104 10.7307 119.767 11.3355H119.732L119.673 10.4619H118.566C118.601 11.0439 118.613 11.5806 118.613 12.081V16.1241H119.873V12.7572C119.873 12.0117 120.384 11.3706 121.13 11.3706C121.888 11.3706 122.272 11.8725 122.272 12.8736V16.1241ZM131.997 11.4066H130.613V14.1555C130.613 14.8554 130.855 15.2046 131.345 15.2046C131.567 15.2046 131.753 15.1806 131.903 15.1458L131.938 16.1013C131.694 16.1949 131.368 16.2417 130.962 16.2417C129.97 16.2417 129.377 15.6942 129.377 14.2611V11.4066H128.551V10.4634H129.377V9.42602L130.613 9.05252V10.4619H131.997L131.997 11.4066ZM137.401 16.1241H138.658V12.7572C138.658 11.277 137.926 10.3455 136.727 10.3455C135.995 10.3455 135.421 10.6494 135.025 11.2662H135V7.86572H133.743V16.1241H135V12.7116C135 11.8149 135.607 11.3718 136.259 11.3718C137.018 11.3718 137.401 11.8845 137.401 12.8976V16.1241ZM145.483 13.596H141.707C141.731 14.6679 142.44 15.273 143.491 15.273C144.049 15.273 144.563 15.1794 145.017 15.0054L145.212 15.8793C144.677 16.1121 144.047 16.2285 143.313 16.2285C141.542 16.2285 140.494 15.1095 140.494 13.3755C140.494 11.6397 141.567 10.3347 143.171 10.3347C144.618 10.3347 145.526 11.4066 145.526 13.0257C145.534 13.2169 145.519 13.4083 145.483 13.596ZM143.084 11.2086C143.888 11.2086 144.329 11.8257 144.329 12.6996H141.708C141.789 11.8377 142.361 11.2086 143.084 11.2086Z" fill="white"/>
  <defs>
    <linearGradient id="paint0_linear_0_178" x1="274.556" y1="48.1274" x2="274.556" y2="-124.984" gradientUnits="userSpaceOnUse">
      <stop stop-color="#1A1A1A" stop-opacity="0.1"/>
      <stop offset="0.123" stop-color="#212121" stop-opacity="0.151"/>
      <stop offset="0.308" stop-color="#353535" stop-opacity="0.227"/>
      <stop offset="0.532" stop-color="#575757" stop-opacity="0.318"/>
      <stop offset="0.783" stop-color="#858585" stop-opacity="0.421"/>
      <stop offset="1" stop-color="#B3B3B3" stop-opacity="0.51"/>
    </linearGradient>
  </defs>
</svg>