<svg xmlns="http://www.w3.org/2000/svg" width="142" height="22" viewBox="0 0 142 22" fill="none">
  <path fill-rule="evenodd" clip-rule="evenodd" d="M19.2236 1.76001H2.77641C2.21507 1.76001 1.76001 2.21507 1.76001 2.77641V19.2236C1.76001 19.4932 1.86709 19.7517 2.05771 19.9423C2.24832 20.1329 2.50684 20.24 2.77641 20.24H11.6283V13.079H9.22593V10.307H11.6283V8.22801C11.5276 7.23999 11.8687 6.25796 12.5602 5.54509C13.2516 4.83223 14.2228 4.46141 15.2134 4.53201C15.9326 4.52758 16.6515 4.56461 17.3664 4.64289V7.13769H15.8972C14.733 7.13769 14.5112 7.69209 14.5112 8.49597V10.2793H17.2832L16.9228 13.0513H14.5112V20.24H19.2236C19.4932 20.24 19.7517 20.1329 19.9423 19.9423C20.1329 19.7517 20.24 19.4932 20.24 19.2236V2.77641C20.24 2.50684 20.1329 2.24832 19.9423 2.05771C19.7517 1.86709 19.4932 1.76001 19.2236 1.76001Z" fill="#919EAB"/>
  <path fill-rule="evenodd" clip-rule="evenodd" d="M60.24 5.24086C59.5455 5.54377 58.811 5.74401 58.0594 5.83535C58.8523 5.35913 59.4465 4.60994 59.7318 3.72677C58.9867 4.1727 58.171 4.48688 57.3202 4.65566C56.1505 3.38056 54.2716 3.061 52.7499 3.87836C51.2281 4.69571 50.4479 6.4435 50.8522 8.1297C47.8052 7.97477 44.967 6.52622 43.0444 4.14477C42.7109 4.73013 42.5357 5.39303 42.5362 6.06757C42.5338 7.33988 43.1651 8.52894 44.2178 9.23508C43.6154 9.2186 43.0258 9.05608 42.4992 8.76135V8.80779C42.5085 10.6173 43.783 12.1703 45.5484 12.5233C45.2188 12.6242 44.8765 12.6774 44.532 12.6813C44.2935 12.6785 44.0556 12.6567 43.8205 12.6162C44.3204 14.1639 45.7411 15.223 47.3594 15.2543C46.0263 16.3088 44.3804 16.8843 42.684 16.8891C42.3751 16.8901 42.0665 16.8715 41.76 16.8334C43.492 17.9576 45.5104 18.5544 47.572 18.5518C50.4459 18.5818 53.2111 17.4493 55.246 15.4089C57.2808 13.3686 58.4145 10.5916 58.392 7.70242C58.392 7.5445 58.392 7.3773 58.392 7.2101C59.1171 6.66653 59.7424 6.00016 60.24 5.24086Z" fill="#919EAB"/>
  <path fill-rule="evenodd" clip-rule="evenodd" d="M98.8263 1.76002H83.1737C82.8184 1.75508 82.4756 1.89153 82.2209 2.13933C81.9661 2.38713 81.8203 2.72599 81.8154 3.08134V18.9187C81.8203 19.274 81.9661 19.6129 82.2209 19.8607C82.4756 20.1085 82.8184 20.245 83.1737 20.24H98.8263C99.1816 20.245 99.5244 20.1085 99.7791 19.8607C100.034 19.6129 100.18 19.274 100.185 18.9187V3.08134C100.18 2.72599 100.034 2.38713 99.7791 2.13933C99.5244 1.89153 99.1816 1.75508 98.8263 1.76002ZM87.3871 17.2278H84.6151V8.91178H87.3871V17.2278ZM86.0011 7.74754C85.2051 7.74754 84.5597 7.10218 84.5597 6.3061C84.5597 5.51001 85.2051 4.86466 86.0011 4.86466C86.5551 4.80184 87.096 5.06202 87.3928 5.53399C87.6895 6.00597 87.6895 6.60623 87.3928 7.0782C87.096 7.55018 86.5551 7.81036 86.0011 7.74754ZM97.3848 17.2278H94.6128V12.7649C94.6128 11.6468 94.2155 10.9169 93.2083 10.9169C92.5699 10.9215 92.0021 11.3235 91.7854 11.924C91.7131 12.1412 91.6818 12.3699 91.693 12.5985V17.2185H88.921C88.921 17.2185 88.921 9.66022 88.921 8.90254H91.693V10.076C92.2062 9.18553 93.1699 8.65208 94.197 8.69002C96.045 8.69002 97.3848 9.88198 97.3848 12.4415V17.2278Z" fill="#919EAB"/>
  <path fill-rule="evenodd" clip-rule="evenodd" d="M135.934 4.95705C135.486 4.95705 135.081 5.2272 134.91 5.64153C134.738 6.05586 134.833 6.53278 135.15 6.84989C135.467 7.167 135.944 7.26187 136.358 7.09025C136.773 6.91863 137.043 6.51432 137.043 6.06585C137.043 5.45348 136.547 4.95705 135.934 4.95705ZM140.185 7.19313C140.167 6.42649 140.023 5.66798 139.76 4.94781C139.525 4.33162 139.159 3.77366 138.688 3.31233C138.23 2.83871 137.671 2.47535 137.052 2.24973C136.334 1.97822 135.575 1.83135 134.807 1.81545C133.827 1.76001 133.513 1.76001 131 1.76001C128.487 1.76001 128.173 1.76001 127.193 1.81545C126.425 1.83135 125.666 1.97822 124.948 2.24973C124.33 2.47763 123.771 2.84068 123.312 3.31233C122.839 3.76987 122.475 4.32914 122.25 4.94781C121.978 5.66607 121.831 6.42543 121.815 7.19313C121.76 8.17257 121.76 8.48673 121.76 11C121.76 13.5133 121.76 13.8274 121.815 14.8069C121.831 15.5746 121.978 16.3339 122.25 17.0522C122.475 17.6709 122.839 18.2301 123.312 18.6877C123.771 19.1593 124.33 19.5224 124.948 19.7503C125.666 20.0218 126.425 20.1687 127.193 20.1846C128.173 20.24 128.487 20.24 131 20.24C133.513 20.24 133.827 20.24 134.807 20.1846C135.575 20.1687 136.334 20.0218 137.052 19.7503C137.671 19.5247 138.23 19.1613 138.688 18.6877C139.161 18.2281 139.527 17.6696 139.76 17.0522C140.023 16.332 140.167 15.5735 140.185 14.8069C140.185 13.8274 140.24 13.5133 140.24 11C140.24 8.48673 140.24 8.17257 140.185 7.19313ZM138.521 14.696C138.515 15.2825 138.408 15.8637 138.207 16.4146C138.06 16.8168 137.823 17.1801 137.514 17.4773C137.215 17.7826 136.852 18.0191 136.452 18.1702C135.901 18.3715 135.319 18.4777 134.733 18.4844C133.809 18.5306 133.467 18.5399 131.037 18.5399C128.607 18.5399 128.265 18.5399 127.341 18.4844C126.732 18.4958 126.126 18.402 125.548 18.2072C125.166 18.0484 124.82 17.8125 124.532 17.5142C124.225 17.2174 123.991 16.8537 123.848 16.4516C123.623 15.8927 123.498 15.2984 123.479 14.696C123.479 13.772 123.423 13.4301 123.423 11C123.423 8.56989 123.423 8.22801 123.479 7.30401C123.483 6.70438 123.592 6.11015 123.802 5.54841C123.965 5.1584 124.214 4.81074 124.532 4.53201C124.813 4.21431 125.16 3.96199 125.548 3.79281C126.112 3.58957 126.705 3.48334 127.304 3.47865C128.228 3.47865 128.57 3.42321 131 3.42321C133.43 3.42321 133.772 3.42321 134.696 3.47865C135.283 3.48538 135.864 3.59161 136.415 3.79281C136.835 3.94864 137.211 4.202 137.514 4.53201C137.817 4.81584 138.054 5.16285 138.207 5.54841C138.413 6.11106 138.519 6.70505 138.521 7.30401C138.568 8.22801 138.577 8.56989 138.577 11C138.577 13.4301 138.568 13.772 138.521 14.696ZM131 6.25989C128.383 6.26499 126.266 8.38947 126.269 11.0062C126.273 13.6228 128.396 15.7418 131.012 15.7401C133.629 15.7384 135.749 13.6167 135.749 11C135.752 9.74049 135.252 8.53199 134.36 7.64224C133.469 6.75249 132.26 6.25497 131 6.25989ZM131 14.0769C129.301 14.0769 127.923 12.6993 127.923 11C127.923 9.30067 129.301 7.92309 131 7.92309C132.699 7.92309 134.077 9.30067 134.077 11C134.077 11.8161 133.753 12.5987 133.176 13.1757C132.599 13.7528 131.816 14.0769 131 14.0769Z" fill="#919EAB"/>
</svg>