<svg xmlns="http://www.w3.org/2000/svg" width="24" height="24" viewBox="0 0 24 24" fill="none">
  <path fill-rule="evenodd" clip-rule="evenodd" d="M3.82447 6.02642L3.64207 4.52976C3.57636 3.89527 3.03547 3.41278 2.38995 3.41278H1.71555C1.29825 3.41278 0.959999 3.0786 0.959999 2.66641C0.959999 2.25422 1.29825 1.92004 1.71555 1.92004H2.38995C3.81051 1.92004 5.00074 2.98176 5.14532 4.37784L5.28298 5.70708H20.6163C20.9333 5.70708 21.1714 5.99297 21.1104 6.30029L19.7709 13.0491C19.4466 14.6829 17.9971 15.8614 16.3119 15.8614H8.28337C8.51491 16.8708 9.42797 17.6024 10.493 17.6024H16.8165C16.8538 17.6024 16.8908 17.6051 16.8722 17.6084C16.9276 17.6044 16.9833 17.6024 17.0392 17.6024C18.2908 17.6024 19.3054 18.6048 19.3054 19.8412C19.3054 21.0777 18.2908 22.08 17.0392 22.08C15.7876 22.08 14.773 21.0777 14.773 19.8412C14.773 19.5836 14.8172 19.3321 14.9019 19.0952H12.1267C12.2115 19.3321 12.2557 19.5836 12.2557 19.8412C12.2557 21.0777 11.2411 22.08 9.98947 22.08C8.73787 22.08 7.72327 21.0777 7.72327 19.8412C7.72327 19.296 7.92195 18.7821 8.27107 18.3815C7.41224 17.7637 6.84569 16.8105 6.73584 15.7468L6.72424 15.6345C5.49461 15.172 4.58711 14.0478 4.46622 12.6825L4.16172 9.24306C4.15659 9.22179 4.15281 9.19993 4.15049 9.17758L3.82447 6.02642ZM9.98947 20.8362C10.5457 20.8362 10.9966 20.3907 10.9966 19.8412C10.9966 19.2917 10.5457 18.8463 9.98947 18.8463C9.43327 18.8463 8.98237 19.2917 8.98237 19.8412C8.98237 20.3907 9.43327 20.8362 9.98947 20.8362ZM17.0392 20.8362C17.5954 20.8362 18.0463 20.3907 18.0463 19.8412C18.0463 19.2917 17.5954 18.8463 17.0392 18.8463C16.483 18.8463 16.0321 19.2917 16.0321 19.8412C16.0321 20.3907 16.483 20.8362 17.0392 20.8362Z" fill="#454F5B"/>
</svg>