<svg width="46" height="46" viewBox="0 0 46 46" fill="none" xmlns="http://www.w3.org/2000/svg">
<g clip-path="url(#clip0_0_379)">
<rect x="0.5" y="0.5" width="45" height="45" rx="22.5" stroke="#C4CDD5"/>
<rect width="46" height="46" rx="12" fill="white"/>
</g>
<path fill-rule="evenodd" clip-rule="evenodd" d="M14.8245 17.0264L14.6421 15.5297C14.5764 14.8952 14.0355 14.4127 13.39 14.4127H12.7156C12.2983 14.4127 11.96 14.0786 11.96 13.6664C11.96 13.2542 12.2983 12.92 12.7156 12.92H13.39C14.8105 12.92 16.0008 13.9817 16.1453 15.3778L16.283 16.707H31.6163C31.9333 16.707 32.1714 16.9929 32.1104 17.3002L30.7709 24.0491C30.4466 25.6829 28.9971 26.8613 27.3119 26.8613H19.2834C19.5149 27.8707 20.428 28.6024 21.493 28.6024H27.8166C27.8538 28.6024 27.8908 28.6051 27.8722 28.6084C27.9276 28.6044 27.9833 28.6024 28.0392 28.6024C29.2908 28.6024 30.3054 29.6047 30.3054 30.8412C30.3054 32.0776 29.2908 33.08 28.0392 33.08C26.7876 33.08 25.773 32.0776 25.773 30.8412C25.773 30.5835 25.8172 30.332 25.9019 30.0951H23.1268C23.2115 30.332 23.2557 30.5835 23.2557 30.8412C23.2557 32.0776 22.2411 33.08 20.9895 33.08C19.7379 33.08 18.7233 32.0776 18.7233 30.8412C18.7233 30.2959 18.922 29.782 19.2711 29.3815C18.4123 28.7636 17.8457 27.8105 17.7359 26.7468L17.7243 26.6344C16.4946 26.172 15.5871 25.0478 15.4662 23.6824L15.1617 20.243C15.1566 20.2217 15.1528 20.1999 15.1505 20.1775L14.8245 17.0264ZM20.9895 31.8362C21.5457 31.8362 21.9966 31.3907 21.9966 30.8412C21.9966 30.2917 21.5457 29.8462 20.9895 29.8462C20.4333 29.8462 19.9824 30.2917 19.9824 30.8412C19.9824 31.3907 20.4333 31.8362 20.9895 31.8362ZM28.0392 31.8362C28.5954 31.8362 29.0463 31.3907 29.0463 30.8412C29.0463 30.2917 28.5954 29.8462 28.0392 29.8462C27.483 29.8462 27.0321 30.2917 27.0321 30.8412C27.0321 31.3907 27.483 31.8362 28.0392 31.8362Z" fill="#454F5B"/>
<defs>
<clipPath id="clip0_0_379">
<rect width="46" height="46" fill="white"/>
</clipPath>
</defs>
</svg>
