<svg xmlns="http://www.w3.org/2000/svg" width="8" height="14" viewBox="0 0 8 14" fill="none">
  <path fill-rule="evenodd" clip-rule="evenodd" d="M1.73488 4.84267L3.99918 2.67589L6.26347 4.84267C6.44913 5.02102 6.70186 5.12133 6.9655 5.12133C7.22915 5.12133 7.48187 5.02102 7.66753 4.84267C7.85472 4.66578 7.96001 4.42499 7.96001 4.17379C7.96001 3.9226 7.85472 3.68181 7.66753 3.50492L4.70121 0.678689C4.51555 0.500342 4.26282 0.400024 3.99918 0.400024C3.73553 0.400024 3.48281 0.500342 3.29715 0.678689L0.330822 3.50492C-0.056899 3.87433 -0.056899 4.47326 0.330822 4.84267C0.718542 5.21208 1.34716 5.21208 1.73488 4.84267ZM6.26347 9.15738L3.99918 11.3242L1.73488 9.15738C1.48407 8.91841 1.11851 8.82509 0.775891 8.91255C0.433276 9.00002 0.165664 9.255 0.0738607 9.58143C-0.0179426 9.90786 0.0800104 10.2562 0.330822 10.4951L3.29715 13.3214C3.48281 13.4997 3.73553 13.6 3.99918 13.6C4.26282 13.6 4.51555 13.4997 4.70121 13.3214L7.66753 10.4951C8.05525 10.1257 8.05525 9.52679 7.66753 9.15738C7.27981 8.78797 6.65119 8.78797 6.26347 9.15738Z" fill="#454F5B"/>
</svg>