<svg xmlns="http://www.w3.org/2000/svg" width="22" height="22" viewBox="0 0 22 22" fill="none">
  <path fill-rule="evenodd" clip-rule="evenodd" d="M8.94962 7.04C8.60843 7.38324 8.60843 7.93757 8.94962 8.2808L12.0648 11.44L8.94962 14.5552C8.60843 14.8984 8.60843 15.4528 8.94962 15.796C9.11486 15.9626 9.33978 16.0563 9.57442 16.0563C9.80906 16.0563 10.034 15.9626 10.1992 15.796L13.9304 12.0648C14.097 11.8996 14.1907 11.6746 14.1907 11.44C14.1907 11.2054 14.097 10.9804 13.9304 10.8152L10.1992 7.04C10.034 6.87341 9.80906 6.7797 9.57442 6.7797C9.33978 6.7797 9.11486 6.87341 8.94962 7.04Z" fill="white"/>
</svg>