<svg width="32" height="22" viewBox="0 0 32 22" fill="none" xmlns="http://www.w3.org/2000/svg">
<rect width="32" height="22" rx="8" fill="#454F5B"/>
<path d="M15.3789 11.4082C15.3789 12.6348 15.1484 13.5605 14.6875 14.1855C14.2305 14.8066 13.5332 15.1172 12.5957 15.1172C11.6738 15.1172 10.9785 14.8145 10.5098 14.209C10.0449 13.5996 9.80664 12.6992 9.79492 11.5078V10.0312C9.79492 8.80469 10.0234 7.88477 10.4805 7.27148C10.9414 6.6582 11.6426 6.35156 12.584 6.35156C13.5176 6.35156 14.2129 6.65039 14.6699 7.24805C15.1309 7.8457 15.3672 8.74023 15.3789 9.93164V11.4082ZM13.9551 9.81445C13.9551 9.01367 13.8457 8.42773 13.627 8.05664C13.4082 7.68164 13.0605 7.49414 12.584 7.49414C12.1191 7.49414 11.7773 7.67188 11.5586 8.02734C11.3398 8.37891 11.2246 8.92969 11.2129 9.67969V11.6133C11.2129 12.4102 11.3242 13.0039 11.5469 13.3945C11.7695 13.7852 12.1191 13.9805 12.5957 13.9805C13.0527 13.9805 13.3906 13.8008 13.6094 13.4414C13.8281 13.0781 13.9434 12.5117 13.9551 11.7422V9.81445ZM20.4941 15H19.0762V8.15039L16.9844 8.86523V7.66406L20.3125 6.43945H20.4941V15Z" fill="white"/>
</svg>
