<svg xmlns="http://www.w3.org/2000/svg" width="64" height="64" viewBox="0 0 64 64" fill="none">
  <g clip-path="url(#clip0_0_286)">
    <rect width="64" height="64" rx="32" fill="white"/>
    <path fill-rule="evenodd" clip-rule="evenodd" d="M24.6802 32.8381L30.9266 38.2959C31.226 38.5575 31.2567 39.0124 30.995 39.3118C30.7334 39.6112 30.2786 39.6419 29.9791 39.3803L22.2991 32.6698C22.2971 32.6681 22.2952 32.6664 22.2932 32.6646C22.1394 32.5326 22.0419 32.3367 22.0419 32.1181C22.0419 31.8503 22.1882 31.6166 22.4051 31.4926L29.9784 24.8565C30.2774 24.5945 30.7323 24.6245 30.9944 24.9236C31.2564 25.2226 31.2264 25.6775 30.9274 25.9396L24.698 31.3981H41.7181C42.1157 31.3981 42.4381 31.7204 42.4381 32.1181C42.4381 32.5157 42.1157 32.8381 41.7181 32.8381H24.6802Z" fill="#919EAB"/>
  </g>
  <defs>
    <clipPath id="clip0_0_286">
      <rect width="64" height="64" fill="white"/>
    </clipPath>
  </defs>
</svg>