<svg xmlns="http://www.w3.org/2000/svg" width="20" height="20" viewBox="0 0 20 20" fill="none">
  <path fill-rule="evenodd" clip-rule="evenodd" d="M3.80001 4.39995C3.46864 4.39995 3.20001 4.13132 3.20001 3.79995C3.20001 3.46858 3.46864 3.19995 3.80001 3.19995H16.6C16.9314 3.19995 17.2 3.46858 17.2 3.79995C17.2 4.13132 16.9314 4.39995 16.6 4.39995H3.80001ZM3.80001 15.6C3.46864 15.6 3.20001 15.3313 3.20001 15C3.20001 14.6686 3.46864 14.4 3.80001 14.4H16.6C16.9314 14.4 17.2 14.6686 17.2 15C17.2 15.3313 16.9314 15.6 16.6 15.6H3.80001ZM3.20001 9.39995C3.20001 9.73132 3.46864 9.99995 3.80001 9.99995H16.6C16.9314 9.99995 17.2 9.73132 17.2 9.39995C17.2 9.06858 16.9314 8.79995 16.6 8.79995H3.80001C3.46864 8.79995 3.20001 9.06858 3.20001 9.39995Z" fill="#454F5B"/>
</svg>