<svg width="32" height="22" viewBox="0 0 32 22" fill="none" xmlns="http://www.w3.org/2000/svg">
<rect width="32" height="22" rx="8" fill="#454F5B"/>
<path d="M11.4648 10.084H12.332C12.7695 10.0801 13.1152 9.9668 13.3691 9.74414C13.627 9.52148 13.7559 9.19922 13.7559 8.77734C13.7559 8.37109 13.6484 8.05664 13.4336 7.83398C13.2227 7.60742 12.8984 7.49414 12.4609 7.49414C12.0781 7.49414 11.7637 7.60547 11.5176 7.82812C11.2715 8.04688 11.1484 8.33398 11.1484 8.68945H9.72461C9.72461 8.25195 9.83984 7.85352 10.0703 7.49414C10.3047 7.13477 10.6289 6.85547 11.043 6.65625C11.4609 6.45312 11.9277 6.35156 12.4434 6.35156C13.2949 6.35156 13.9629 6.56641 14.4473 6.99609C14.9355 7.42188 15.1797 8.01562 15.1797 8.77734C15.1797 9.16016 15.0566 9.52148 14.8105 9.86133C14.5684 10.1973 14.2539 10.4512 13.8672 10.623C14.3359 10.7832 14.6914 11.0352 14.9336 11.3789C15.1797 11.7227 15.3027 12.1328 15.3027 12.6094C15.3027 13.375 15.0391 13.9844 14.5117 14.4375C13.9883 14.8906 13.2988 15.1172 12.4434 15.1172C11.623 15.1172 10.9512 14.8984 10.4277 14.4609C9.9043 14.0234 9.64258 13.4414 9.64258 12.7148H11.0664C11.0664 13.0898 11.1914 13.3945 11.4414 13.6289C11.6953 13.8633 12.0352 13.9805 12.4609 13.9805C12.9023 13.9805 13.25 13.8633 13.5039 13.6289C13.7578 13.3945 13.8848 13.0547 13.8848 12.6094C13.8848 12.1602 13.752 11.8145 13.4863 11.5723C13.2207 11.3301 12.8262 11.209 12.3027 11.209H11.4648V10.084ZM21.4551 11.959H22.5156V13.1016H21.4551V15H20.0312V13.1016H16.3457L16.3047 12.2344L19.9844 6.46875H21.4551V11.959ZM17.7988 11.959H20.0312V8.39648L19.9258 8.58398L17.7988 11.959Z" fill="white"/>
</svg>
