<svg xmlns="http://www.w3.org/2000/svg" width="96" height="16" viewBox="0 0 96 16" fill="none">
  <path fill-rule="evenodd" clip-rule="evenodd" d="M8.00035 12.2246L4.33786 14.6663C4.10771 14.8197 3.80445 14.6286 3.84357 14.3547L4.46094 10.0331L1.37408 6.94627C1.18762 6.75981 1.29406 6.44051 1.5551 6.40321L5.85707 5.78865L7.70623 1.47394C7.81705 1.21535 8.18365 1.21535 8.29448 1.47394L10.1436 5.78865L14.4456 6.40321C14.7067 6.44051 14.8131 6.75981 14.6266 6.94627L11.5398 10.0331L12.1571 14.3547C12.1963 14.6286 11.893 14.8197 11.6629 14.6663L8.00035 12.2246Z" fill="#EEC200"/>
  <path fill-rule="evenodd" clip-rule="evenodd" d="M28.0004 12.2246L24.3379 14.6663C24.1077 14.8197 23.8045 14.6286 23.8436 14.3547L24.4609 10.0331L21.3741 6.94627C21.1876 6.75981 21.2941 6.44051 21.5551 6.40321L25.8571 5.78865L27.7062 1.47394C27.8171 1.21535 28.1837 1.21535 28.2945 1.47394L30.1436 5.78865L34.4456 6.40321C34.7067 6.44051 34.8131 6.75981 34.6266 6.94627L31.5398 10.0331L32.1571 14.3547C32.1963 14.6286 31.893 14.8197 31.6629 14.6663L28.0004 12.2246Z" fill="#EEC200"/>
  <path fill-rule="evenodd" clip-rule="evenodd" d="M48.0004 12.2246L44.3379 14.6663C44.1077 14.8197 43.8045 14.6286 43.8436 14.3547L44.4609 10.0331L41.3741 6.94627C41.1876 6.75981 41.2941 6.44051 41.5551 6.40321L45.8571 5.78865L47.7062 1.47394C47.8171 1.21535 48.1837 1.21535 48.2945 1.47394L50.1436 5.78865L54.4456 6.40321C54.7067 6.44051 54.8131 6.75981 54.6266 6.94627L51.5398 10.0331L52.1571 14.3547C52.1963 14.6286 51.893 14.8197 51.6629 14.6663L48.0004 12.2246Z" fill="#EEC200"/>
  <path fill-rule="evenodd" clip-rule="evenodd" d="M68.0004 12.2246L64.3379 14.6663C64.1077 14.8197 63.8045 14.6286 63.8436 14.3547L64.4609 10.0331L61.3741 6.94627C61.1876 6.75981 61.2941 6.44051 61.5551 6.40321L65.8571 5.78865L67.7062 1.47394C67.8171 1.21535 68.1837 1.21535 68.2945 1.47394L70.1436 5.78865L74.4456 6.40321C74.7067 6.44051 74.8131 6.75981 74.6266 6.94627L71.5398 10.0331L72.1571 14.3547C72.1963 14.6286 71.893 14.8197 71.6629 14.6663L68.0004 12.2246Z" fill="#EEC200"/>
  <path fill-rule="evenodd" clip-rule="evenodd" d="M88.0004 12.2246L84.3379 14.6663C84.1077 14.8197 83.8045 14.6286 83.8436 14.3547L84.4609 10.0331L81.3741 6.94627C81.1876 6.75981 81.2941 6.44051 81.5551 6.40321L85.8571 5.78865L87.7062 1.47394C87.8171 1.21535 88.1837 1.21535 88.2945 1.47394L90.1436 5.78865L94.4456 6.40321C94.7067 6.44051 94.8131 6.75981 94.6266 6.94627L91.5398 10.0331L92.1571 14.3547C92.1963 14.6286 91.893 14.8197 91.6629 14.6663L88.0004 12.2246Z" fill="#EEC200"/>
</svg>