<svg xmlns="http://www.w3.org/2000/svg" width="64" height="64" viewBox="0 0 64 64" fill="none">
  <g clip-path="url(#clip0_0_281)">
    <rect width="64" height="64" rx="32" fill="white"/>
    <path fill-rule="evenodd" clip-rule="evenodd" d="M39.7998 31.3981L33.5534 25.9403C33.254 25.6786 33.2233 25.2238 33.485 24.9243C33.7466 24.6249 34.2015 24.5943 34.5009 24.8559L42.1809 31.5663C42.1829 31.568 42.1848 31.5698 42.1868 31.5715C42.3406 31.7036 42.4381 31.8994 42.4381 32.1181C42.4381 32.3859 42.2919 32.6195 42.0749 32.7436L34.5017 39.3796C34.2026 39.6417 33.7477 39.6117 33.4856 39.3126C33.2236 39.0135 33.2536 38.5586 33.5527 38.2966L39.7821 32.8381H22.7619C22.3643 32.8381 22.0419 32.5157 22.0419 32.1181C22.0419 31.7204 22.3643 31.3981 22.7619 31.3981L39.7998 31.3981Z" fill="#212B36"/>
  </g>
  <defs>
    <clipPath id="clip0_0_281">
      <rect width="64" height="64" fill="white"/>
    </clipPath>
  </defs>
</svg>