<svg xmlns="http://www.w3.org/2000/svg" width="44" height="44" viewBox="0 0 44 44" fill="none">
  <g clip-path="url(#clip0_0_677)">
    <rect width="44" height="44" rx="4" fill="#50B83C"/>
    <path fill-rule="evenodd" clip-rule="evenodd" d="M27.0254 26.0078L29.469 28.4508C30.148 29.1296 29.1299 30.1479 28.451 29.4692L26.0071 27.026C23.0714 29.4473 18.7405 29.2622 16.0191 26.5409C13.1136 23.6354 13.1136 18.9247 16.0191 16.0192C18.9246 13.1137 23.6354 13.1137 26.5409 16.0192C29.2625 18.7408 29.4473 23.0722 27.0254 26.0078ZM25.5226 17.0374C23.1795 14.6942 19.3805 14.6942 17.0374 17.0374C14.6942 19.3805 14.6942 23.1795 17.0374 25.5227C19.3805 27.8658 23.1795 27.8658 25.5226 25.5227C27.8658 23.1795 27.8658 19.3805 25.5226 17.0374Z" fill="white"/>
  </g>
  <defs>
    <clipPath id="clip0_0_677">
      <rect width="44" height="44" fill="white"/>
    </clipPath>
  </defs>
</svg>