<svg width="32" height="22" viewBox="0 0 32 22" fill="none" xmlns="http://www.w3.org/2000/svg">
<rect width="32" height="22" rx="8" fill="#454F5B"/>
<path d="M10.1992 10.7695L10.6621 6.46875H15.2441V7.69922H11.8457L11.6113 9.73828C12.0059 9.51172 12.4512 9.39844 12.9473 9.39844C13.7598 9.39844 14.3906 9.6582 14.8398 10.1777C15.293 10.6973 15.5195 11.3965 15.5195 12.2754C15.5195 13.1426 15.2695 13.834 14.7695 14.3496C14.2695 14.8613 13.584 15.1172 12.7129 15.1172C11.9316 15.1172 11.2832 14.8965 10.7676 14.4551C10.2559 14.0098 9.97852 13.4238 9.93555 12.6973H11.3125C11.3672 13.1113 11.5156 13.4297 11.7578 13.6523C12 13.8711 12.3164 13.9805 12.707 13.9805C13.1445 13.9805 13.4844 13.8242 13.7266 13.5117C13.9727 13.1992 14.0957 12.7734 14.0957 12.2344C14.0957 11.7148 13.9609 11.3047 13.6914 11.0039C13.4219 10.6992 13.0508 10.5469 12.5781 10.5469C12.3203 10.5469 12.1016 10.582 11.9219 10.6523C11.7422 10.7188 11.5469 10.8516 11.3359 11.0508L10.1992 10.7695ZM22.1992 11.4082C22.1992 12.6348 21.9688 13.5605 21.5078 14.1855C21.0508 14.8066 20.3535 15.1172 19.416 15.1172C18.4941 15.1172 17.7988 14.8145 17.3301 14.209C16.8652 13.5996 16.627 12.6992 16.6152 11.5078V10.0312C16.6152 8.80469 16.8438 7.88477 17.3008 7.27148C17.7617 6.6582 18.4629 6.35156 19.4043 6.35156C20.3379 6.35156 21.0332 6.65039 21.4902 7.24805C21.9512 7.8457 22.1875 8.74023 22.1992 9.93164V11.4082ZM20.7754 9.81445C20.7754 9.01367 20.666 8.42773 20.4473 8.05664C20.2285 7.68164 19.8809 7.49414 19.4043 7.49414C18.9395 7.49414 18.5977 7.67188 18.3789 8.02734C18.1602 8.37891 18.0449 8.92969 18.0332 9.67969V11.6133C18.0332 12.4102 18.1445 13.0039 18.3672 13.3945C18.5898 13.7852 18.9395 13.9805 19.416 13.9805C19.873 13.9805 20.2109 13.8008 20.4297 13.4414C20.6484 13.0781 20.7637 12.5117 20.7754 11.7422V9.81445Z" fill="white"/>
</svg>
