<svg
            xmlns="http://www.w3.org/2000/svg"
            width="21"
            height="19"
            viewBox="0 0 21 19"
            fill="none"
          >
            <path
              fill-rule="evenodd"
              clip-rule="evenodd"
              d="M0 0.999999C0 0.447714 0.447715 0 1 0H20C20.5523 0 21 0.447715 21 1V2.8C21 3.35229 20.5523 3.8 20 3.8H1C0.447715 3.8 0 3.35228 0 2.8V0.999999ZM0 8.6C0 8.04771 0.447715 7.6 1 7.6H16.1818C16.7341 7.6 17.1818 8.04772 17.1818 8.6V10.4C17.1818 10.9523 16.7341 11.4 16.1818 11.4H0.999999C0.447715 11.4 0 10.9523 0 10.4V8.6ZM1 15.2C0.447715 15.2 0 15.6477 0 16.2V18C0 18.5523 0.447715 19 1 19H20C20.5523 19 21 18.5523 21 18V16.2C21 15.6477 20.5523 15.2 20 15.2H1Z"
              fill="#5C6AC4"
            />
          </svg>