<svg width="46" height="46" viewBox="0 0 46 46" fill="none" xmlns="http://www.w3.org/2000/svg">
<g clip-path="url(#clip0_0_362)">
<rect x="0.5" y="0.5" width="45" height="45" rx="22.5" stroke="#C4CDD5"/>
<rect width="46" height="46" rx="12" fill="white"/>
</g>
<path fill-rule="evenodd" clip-rule="evenodd" d="M22.28 15.32C22.28 14.9224 22.6023 14.6 23 14.6C23.3976 14.6 23.72 14.9224 23.72 15.32V17.24C23.72 17.6376 23.3976 17.96 23 17.96C22.6023 17.96 22.28 17.6376 22.28 17.24V15.32ZM23 26.36C23.7953 26.36 24.44 25.7153 24.44 24.92C24.44 24.1247 23.7953 23.48 23 23.48C22.2047 23.48 21.56 24.1247 21.56 24.92C21.56 25.7153 22.2047 26.36 23 26.36ZM31.1891 15.7709C30.9079 15.4897 30.452 15.4897 30.1709 15.7709L28.2509 17.6909C27.9697 17.9721 27.9697 18.4279 28.2509 18.7091C28.532 18.9903 28.9879 18.9903 29.2691 18.7091L31.1891 16.7891C31.4703 16.5079 31.4703 16.0521 31.1891 15.7709ZM15.8291 15.7709L17.7491 17.6909C18.0303 17.9721 18.0303 18.4279 17.7491 18.7091C17.4679 18.9903 17.012 18.9903 16.7309 18.7091L14.8109 16.7891C14.5297 16.5079 14.5297 16.0521 14.8109 15.7709C15.092 15.4897 15.5479 15.4897 15.8291 15.7709ZM14.8765 24.7362C16.3984 21.0638 19.5129 18.68 23 18.68C26.487 18.68 29.6016 21.0638 31.1234 24.7362C31.1722 24.8539 31.1722 24.9861 31.1234 25.1038C29.6016 28.7762 26.487 31.16 23 31.16C19.5129 31.16 16.3984 28.7762 14.8765 25.1038C14.8278 24.9861 14.8278 24.8539 14.8765 24.7362ZM23 27.32C21.6745 27.32 20.6 26.2455 20.6 24.92C20.6 23.5945 21.6745 22.52 23 22.52C24.3255 22.52 25.4 23.5945 25.4 24.92C25.4 26.2455 24.3255 27.32 23 27.32Z" fill="#454F5B"/>
<defs>
<clipPath id="clip0_0_362">
<rect width="46" height="46" fill="white"/>
</clipPath>
</defs>
</svg>
